<mxfile host="Electron" modified="2024-06-24T13:52:13.458Z" agent="Mozilla/5.0 (Windows NT 10.0; Win64; x64) AppleWebKit/537.36 (KHTML, like Gecko) draw.io/24.2.5 Chrome/120.0.6099.109 Electron/28.1.0 Safari/537.36" etag="6HsYEVWzpG7YalaW7R13" version="24.2.5" type="device">
  <diagram name="Page-1" id="mwwvPXUGmwAPzprlC4RT">
    <mxGraphModel dx="2407" dy="661" grid="1" gridSize="10" guides="1" tooltips="1" connect="1" arrows="1" fold="1" page="1" pageScale="1" pageWidth="827" pageHeight="1169" math="0" shadow="0">
      <root>
        <mxCell id="0" />
        <mxCell id="1" parent="0" />
        <mxCell id="TSJAZQH25x7zYd233ixx-2" value="balance&amp;lt;0" style="ellipse;whiteSpace=wrap;html=1;aspect=fixed;rotation=0;" parent="1" vertex="1">
          <mxGeometry x="-60" y="720" width="80" height="80" as="geometry" />
        </mxCell>
        <mxCell id="TSJAZQH25x7zYd233ixx-3" value="bank deficit" style="rounded=0;whiteSpace=wrap;html=1;" parent="1" vertex="1">
          <mxGeometry x="20" y="520" width="120" height="60" as="geometry" />
        </mxCell>
        <mxCell id="TSJAZQH25x7zYd233ixx-8" value="invalid id" style="ellipse;whiteSpace=wrap;html=1;aspect=fixed;" parent="1" vertex="1">
          <mxGeometry x="410" y="510" width="80" height="80" as="geometry" />
        </mxCell>
        <mxCell id="TSJAZQH25x7zYd233ixx-9" value="database breakdown" style="rounded=0;whiteSpace=wrap;html=1;" parent="1" vertex="1">
          <mxGeometry x="490" y="340" width="120" height="60" as="geometry" />
        </mxCell>
        <mxCell id="TSJAZQH25x7zYd233ixx-12" value="illegal close account" style="rounded=0;whiteSpace=wrap;html=1;" parent="1" vertex="1">
          <mxGeometry x="220" y="520" width="120" height="60" as="geometry" />
        </mxCell>
        <mxCell id="TSJAZQH25x7zYd233ixx-13" value="money issue" style="rounded=0;whiteSpace=wrap;html=1;" parent="1" vertex="1">
          <mxGeometry x="120" y="340" width="120" height="60" as="geometry" />
        </mxCell>
        <mxCell id="TSJAZQH25x7zYd233ixx-14" value="" style="shape=partialRectangle;whiteSpace=wrap;html=1;bottom=1;right=1;left=1;top=0;fillColor=none;routingCenterX=-0.5;rotation=-180;" parent="1" vertex="1">
          <mxGeometry x="80" y="480" width="200" height="40" as="geometry" />
        </mxCell>
        <mxCell id="TSJAZQH25x7zYd233ixx-15" value="" style="endArrow=none;html=1;rounded=0;entryX=0.5;entryY=1;entryDx=0;entryDy=0;exitX=1;exitY=0.5;exitDx=0;exitDy=0;exitPerimeter=0;" parent="1" source="TSJAZQH25x7zYd233ixx-16" target="TSJAZQH25x7zYd233ixx-13" edge="1">
          <mxGeometry width="50" height="50" relative="1" as="geometry">
            <mxPoint x="290" y="540" as="sourcePoint" />
            <mxPoint x="340" y="490" as="targetPoint" />
          </mxGeometry>
        </mxCell>
        <mxCell id="TSJAZQH25x7zYd233ixx-17" value="" style="endArrow=none;html=1;rounded=0;entryX=0.25;entryY=0.5;entryDx=0;entryDy=0;exitX=0.5;exitY=1;exitDx=0;exitDy=0;entryPerimeter=0;" parent="1" source="TSJAZQH25x7zYd233ixx-14" target="TSJAZQH25x7zYd233ixx-16" edge="1">
          <mxGeometry width="50" height="50" relative="1" as="geometry">
            <mxPoint x="180" y="480" as="sourcePoint" />
            <mxPoint x="180" y="400" as="targetPoint" />
          </mxGeometry>
        </mxCell>
        <mxCell id="TSJAZQH25x7zYd233ixx-16" value="" style="shape=xor;whiteSpace=wrap;html=1;rotation=-90;" parent="1" vertex="1">
          <mxGeometry x="150" y="400" width="60" height="80" as="geometry" />
        </mxCell>
        <mxCell id="TSJAZQH25x7zYd233ixx-19" value="balance sum changes" style="ellipse;whiteSpace=wrap;html=1;aspect=fixed;" parent="1" vertex="1">
          <mxGeometry x="140" y="720" width="80" height="80" as="geometry" />
        </mxCell>
        <mxCell id="TSJAZQH25x7zYd233ixx-20" value="" style="shape=partialRectangle;whiteSpace=wrap;html=1;bottom=1;right=1;left=1;top=0;fillColor=none;routingCenterX=-0.5;rotation=-180;" parent="1" vertex="1">
          <mxGeometry x="-20" y="680" width="200" height="40" as="geometry" />
        </mxCell>
        <mxCell id="TSJAZQH25x7zYd233ixx-21" value="" style="endArrow=none;html=1;rounded=0;entryX=0.5;entryY=1;entryDx=0;entryDy=0;exitX=1;exitY=0.5;exitDx=0;exitDy=0;exitPerimeter=0;" parent="1" source="TSJAZQH25x7zYd233ixx-23" target="TSJAZQH25x7zYd233ixx-3" edge="1">
          <mxGeometry width="50" height="50" relative="1" as="geometry">
            <mxPoint x="190" y="740" as="sourcePoint" />
            <mxPoint x="80" y="600" as="targetPoint" />
          </mxGeometry>
        </mxCell>
        <mxCell id="TSJAZQH25x7zYd233ixx-22" value="" style="endArrow=none;html=1;rounded=0;entryX=0.25;entryY=0.5;entryDx=0;entryDy=0;exitX=0.5;exitY=1;exitDx=0;exitDy=0;entryPerimeter=0;" parent="1" source="TSJAZQH25x7zYd233ixx-20" target="TSJAZQH25x7zYd233ixx-23" edge="1">
          <mxGeometry width="50" height="50" relative="1" as="geometry">
            <mxPoint x="80" y="680" as="sourcePoint" />
            <mxPoint x="80" y="600" as="targetPoint" />
          </mxGeometry>
        </mxCell>
        <mxCell id="TSJAZQH25x7zYd233ixx-23" value="" style="shape=xor;whiteSpace=wrap;html=1;rotation=-90;" parent="1" vertex="1">
          <mxGeometry x="50" y="590" width="60" height="80" as="geometry" />
        </mxCell>
        <mxCell id="TSJAZQH25x7zYd233ixx-25" value="" style="shape=partialRectangle;whiteSpace=wrap;html=1;bottom=1;right=1;left=1;top=0;fillColor=none;routingCenterX=-0.5;rotation=-180;" parent="1" vertex="1">
          <mxGeometry x="180" y="290" width="370" height="50" as="geometry" />
        </mxCell>
        <mxCell id="TSJAZQH25x7zYd233ixx-27" value="" style="endArrow=none;html=1;rounded=0;entryX=0.25;entryY=0.5;entryDx=0;entryDy=0;exitX=0.5;exitY=1;exitDx=0;exitDy=0;entryPerimeter=0;" parent="1" source="TSJAZQH25x7zYd233ixx-25" target="TSJAZQH25x7zYd233ixx-28" edge="1">
          <mxGeometry width="50" height="50" relative="1" as="geometry">
            <mxPoint x="350" y="280" as="sourcePoint" />
            <mxPoint x="350" y="200" as="targetPoint" />
          </mxGeometry>
        </mxCell>
        <mxCell id="TSJAZQH25x7zYd233ixx-28" value="" style="shape=xor;whiteSpace=wrap;html=1;rotation=-90;" parent="1" vertex="1">
          <mxGeometry x="335" y="190" width="60" height="80" as="geometry" />
        </mxCell>
        <mxCell id="TSJAZQH25x7zYd233ixx-29" value="system fault" style="rounded=0;whiteSpace=wrap;html=1;" parent="1" vertex="1">
          <mxGeometry x="305" y="110" width="120" height="60" as="geometry" />
        </mxCell>
        <mxCell id="TSJAZQH25x7zYd233ixx-30" value="" style="endArrow=none;html=1;rounded=0;entryX=0.5;entryY=1;entryDx=0;entryDy=0;exitX=1;exitY=0.5;exitDx=0;exitDy=0;exitPerimeter=0;" parent="1" source="TSJAZQH25x7zYd233ixx-28" target="TSJAZQH25x7zYd233ixx-29" edge="1">
          <mxGeometry width="50" height="50" relative="1" as="geometry">
            <mxPoint x="365" y="210" as="sourcePoint" />
            <mxPoint x="365" y="350" as="targetPoint" />
          </mxGeometry>
        </mxCell>
        <mxCell id="vhLnnkCxFYkdd5Jknb2h-1" value="invalid password" style="ellipse;whiteSpace=wrap;html=1;aspect=fixed;" vertex="1" parent="1">
          <mxGeometry x="610" y="510" width="80" height="80" as="geometry" />
        </mxCell>
        <mxCell id="vhLnnkCxFYkdd5Jknb2h-2" value="" style="shape=partialRectangle;whiteSpace=wrap;html=1;bottom=1;right=1;left=1;top=0;fillColor=none;routingCenterX=-0.5;rotation=-180;" vertex="1" parent="1">
          <mxGeometry x="450" y="480" width="200" height="30" as="geometry" />
        </mxCell>
        <mxCell id="vhLnnkCxFYkdd5Jknb2h-3" value="" style="endArrow=none;html=1;rounded=0;exitX=1;exitY=0.5;exitDx=0;exitDy=0;exitPerimeter=0;" edge="1" parent="1" source="vhLnnkCxFYkdd5Jknb2h-5">
          <mxGeometry width="50" height="50" relative="1" as="geometry">
            <mxPoint x="660" y="530" as="sourcePoint" />
            <mxPoint x="550" y="400" as="targetPoint" />
          </mxGeometry>
        </mxCell>
        <mxCell id="vhLnnkCxFYkdd5Jknb2h-4" value="" style="endArrow=none;html=1;rounded=0;entryX=0.25;entryY=0.5;entryDx=0;entryDy=0;exitX=0.5;exitY=1;exitDx=0;exitDy=0;entryPerimeter=0;" edge="1" parent="1" source="vhLnnkCxFYkdd5Jknb2h-2" target="vhLnnkCxFYkdd5Jknb2h-5">
          <mxGeometry width="50" height="50" relative="1" as="geometry">
            <mxPoint x="550" y="470" as="sourcePoint" />
            <mxPoint x="550" y="390" as="targetPoint" />
          </mxGeometry>
        </mxCell>
        <mxCell id="vhLnnkCxFYkdd5Jknb2h-5" value="" style="shape=xor;whiteSpace=wrap;html=1;rotation=-90;" vertex="1" parent="1">
          <mxGeometry x="520" y="400" width="60" height="80" as="geometry" />
        </mxCell>
      </root>
    </mxGraphModel>
  </diagram>
</mxfile>
